<svg width="100" height="100" viewBox="0 0 100 100" fill="none" xmlns="http://www.w3.org/2000/svg">
<g clip-path="url(#clip0)">
<path d="M50.0001 100C77.6054 100 99.9839 77.6144 99.9839 50.0001C99.9839 22.3858 77.6054 0 50.0001 0C22.3947 0 0.0161743 22.3858 0.0161743 50.0001C0.0161743 77.6144 22.3947 100 50.0001 100Z" fill="#57769A"/>
<path d="M50 0C49.9774 0 49.9549 0.000781154 49.9323 0.000781154V99.9992C49.9549 99.9992 49.9774 100 50 100C77.6054 100 99.9839 77.6143 99.9839 49.9999C99.9839 22.3855 77.6054 0 50 0Z" fill="#46607E"/>
<path d="M21.7407 50.9933L41.9577 71.2104C42.8395 72.0921 44.2692 72.0921 45.1509 71.2104L78.3415 38.0197C79.2233 37.138 79.2233 35.7083 78.3415 34.8266L72.3003 28.7853C71.4186 27.9036 69.9888 27.9036 69.1071 28.7853L44.9662 52.9259C44.0844 53.8076 42.6547 53.8076 41.773 52.9259L30.9546 42.1075C30.0903 41.2432 28.6949 41.2236 27.8067 42.0634L21.786 47.7558C20.8619 48.6298 20.8414 50.094 21.7407 50.9933Z" fill="#FFF5F5"/>
<path d="M72.3002 28.7848C71.4184 27.9031 69.9887 27.9031 69.107 28.7848L49.9323 47.9596V66.4286L78.3414 38.0194C79.2231 37.1377 79.2231 35.708 78.3414 34.8261L72.3002 28.7848Z" fill="#DFEBF1"/>
</g>
<defs>
<clipPath id="clip0">
<rect width="100" height="100" fill="white"/>
</clipPath>
</defs>
</svg>
