<svg width="512" height="512" viewBox="0 0 512 512" fill="none" xmlns="http://www.w3.org/2000/svg">
<g clip-path="url(#clip0)">
<path d="M475.123 466.12L426.523 226.12C423.723 212.09 411.413 202 397.113 202H326.293C311.993 202 299.683 212.09 296.883 226.12L297.113 502H445.703C464.633 502 478.833 484.68 475.123 466.12Z" fill="#46607E"/>
<path d="M331.703 142H391.703V202H331.703V142Z" fill="#EEFAFF"/>
<path d="M121.703 10H241.703V82H121.703V10Z" fill="#EEFAFF"/>
<path d="M326.813 467.76C303.297 303.181 298.896 272.352 275.383 107.76C273.283 93.015 260.652 82 245.683 82C227.473 82 171.697 82 117.723 82C102.793 82 90.1329 92.98 88.0229 107.76C87.9959 107.951 39.7949 445.349 36.5929 467.76C34.0129 485.83 48.0329 502 66.2929 502H297.113C315.331 502 329.394 485.876 326.813 467.76Z" fill="#AF5B5B"/>
<path d="M68.504 173.676C68.503 173.684 68.503 173.692 68.501 173.7C68.499 173.715 68.4959 173.73 68.493 173.746L26.693 466.347C23.252 490.447 41.975 512 66.293 512H445.703C470.95 512 489.876 488.909 484.924 464.135L470.735 394.062C469.638 388.649 464.362 385.154 458.949 386.246C453.536 387.342 450.037 392.619 451.133 398.032L465.318 468.08C467.794 480.466 458.311 492 445.704 492H331.825C336.129 484.508 338.027 475.571 336.713 466.346L304.346 239.782L306.691 228.077C308.55 218.761 316.794 212 326.294 212H397.114C406.614 212 414.858 218.761 416.722 228.105L433.268 309.815C434.229 314.558 438.399 317.832 443.059 317.832C443.717 317.832 444.385 317.767 445.055 317.631C450.468 316.535 453.967 311.258 452.871 305.845L436.33 224.163C432.914 207.046 418.72 194.248 401.704 192.274V142C401.704 136.477 397.227 132 391.704 132H331.704C326.181 132 321.704 136.477 321.704 142V192.274C313.085 193.274 305.194 197.051 299.057 202.761L285.284 106.35C282.797 88.894 269.029 75.074 251.704 72.462V10C251.704 4.477 247.227 0 241.704 0H121.704C116.181 0 111.704 4.477 111.704 10V72.469C94.585 75.107 80.631 88.786 78.125 106.343L68.504 173.676ZM381.703 152V192H341.703V152H381.703ZM282.498 228.272L289.528 277.483L89.284 169.667L95.308 127.478L282.498 228.272ZM316.913 469.17C318.209 478.266 313.282 486.799 305.157 490.321L62.162 359.486L68.189 317.299L314.136 449.73L316.913 469.17ZM266.087 492H111.967L189.024 450.507L266.087 492ZM59.149 380.578L104.653 405.078L51.566 433.662L59.149 380.578ZM71.202 296.206L77.228 254.027L303.59 375.913L310.62 425.123L71.202 296.206ZM80.241 232.935L86.267 190.756L293.044 302.09L300.075 351.306L80.241 232.935ZM278.983 203.664L225.357 174.789L271.321 150.037L278.983 203.664ZM46.493 469.173L48.051 458.27L125.747 416.435L167.932 439.149L69.782 492H66.293C54.121 492 44.774 481.211 46.493 469.173ZM265.484 109.173L268.308 128.943L204.265 163.431L162.085 140.719L251.129 92.764C258.627 94.888 264.359 101.283 265.484 109.173ZM231.703 20V72H131.703V20H231.703ZM117.723 92H210.369L140.993 129.362L98.519 106.491C100.95 98.07 108.762 92 117.723 92Z" fill="black"/>
<path d="M451.703 361.999C457.226 361.999 461.703 357.522 461.703 351.999C461.703 346.476 457.226 341.999 451.703 341.999C446.18 341.999 441.703 346.476 441.703 351.999C441.703 357.522 446.18 361.999 451.703 361.999Z" fill="black"/>
</g>
<defs>
<clipPath id="clip0">
<rect width="512" height="512" fill="white"/>
</clipPath>
</defs>
</svg>
