<svg width="100" height="100" viewBox="0 0 100 100" fill="none" xmlns="http://www.w3.org/2000/svg">
<path fill-rule="evenodd" clip-rule="evenodd" d="M12.5464 79.727V79.4915C5.72158 81.4965 1.47607 84.3172 1.47607 87.4425C1.47607 93.5321 17.5999 98.467 37.4878 98.467C57.3757 98.467 73.4995 93.5321 73.4995 87.4425C73.4995 84.3172 69.2485 81.4965 62.4237 79.4915V79.727H12.5464Z" fill="#F3EAE6"/>
<path fill-rule="evenodd" clip-rule="evenodd" d="M62.4235 20.5027L12.5464 20.5027L12.5464 79.4916V79.7271C12.5464 84.8917 23.7163 89.0798 37.4878 89.0798C46.261 89.0798 53.9771 87.3794 58.4218 84.8112C60.9569 83.3463 62.4237 81.5999 62.4237 79.7269V79.4914C62.4235 59.8268 62.4235 40.1677 62.4235 20.5027Z" fill="#AF5B5B"/>
<path fill-rule="evenodd" clip-rule="evenodd" d="M12.563 20.5082C19.0335 22.4098 27.8179 23.5759 37.4878 23.5759C47.1689 23.5759 55.953 22.4098 62.4235 20.5023C69.2538 18.4973 73.4993 15.6766 73.4993 12.5513C73.4993 6.46733 57.3755 1.53247 37.4876 1.53247C17.5997 1.53247 1.47607 6.46753 1.47607 12.5515C1.47607 15.6768 5.72158 18.4975 12.5464 20.5025C12.5519 20.5082 12.5573 20.5082 12.563 20.5082Z" fill="#F3EAE6"/>
<path fill-rule="evenodd" clip-rule="evenodd" d="M12.5464 45.217V55.0123L27.6462 50.1176L12.5464 45.217Z" fill="#AF5B5B"/>
<path fill-rule="evenodd" clip-rule="evenodd" d="M12.5464 55.0125V67.3698L62.4235 51.192V38.8347L46.6982 43.9361L27.6462 50.1178L12.5464 55.0125Z" fill="#AF5B5B"/>
<path fill-rule="evenodd" clip-rule="evenodd" d="M62.4235 51.1921L12.5464 67.3699V79.4916V79.7273L27.6462 74.8267L46.6982 68.6511L62.4235 63.5495V57.2529V51.1921Z" fill="#AF5B5B"/>
<path fill-rule="evenodd" clip-rule="evenodd" d="M37.4876 7.80078C27.9063 7.80078 20.1405 9.48982 20.1405 11.5695C20.1405 13.6492 27.9063 15.3383 37.4876 15.3383C47.0688 15.3383 54.8346 13.6492 54.8346 11.5695C54.8346 9.48982 47.069 7.80078 37.4876 7.80078Z" fill="#ACACAC"/>
<path fill-rule="evenodd" clip-rule="evenodd" d="M44.9932 11.5178C44.9932 13.2586 39.5576 14.7235 32.1738 15.1602C33.851 15.275 35.6332 15.3383 37.4875 15.3383C47.0688 15.3383 54.8346 13.6492 54.8346 11.5695C54.8346 9.48982 47.0688 7.80078 37.4875 7.80078C35.9211 7.80078 34.4045 7.84682 32.9598 7.93283C39.9397 8.42126 44.9932 9.84012 44.9932 11.5178Z" fill="#838383"/>
<path fill-rule="evenodd" clip-rule="evenodd" d="M32.1295 1.65365C49.4766 2.44654 62.7832 7.02522 62.7832 12.5518C62.7832 15.6771 58.5377 18.4978 51.7129 20.5028C46.46 22.0483 39.674 23.1109 32.1295 23.4557C33.8785 23.5363 35.6664 23.5764 37.4875 23.5764C43.2385 23.5764 48.6795 23.1628 53.5063 22.4274C56.7942 21.9276 59.7998 21.2783 62.4235 20.5028C69.2537 18.4978 73.4993 15.6771 73.4993 12.5518C73.4993 6.46782 57.3754 1.53296 37.4875 1.53296C35.6666 1.53296 33.8787 1.57312 32.1295 1.65365Z" fill="#CDBEB9"/>
<path fill-rule="evenodd" clip-rule="evenodd" d="M59.3349 84.2425C58.4991 90.1023 42.7128 94.7729 23.3563 94.7729C17.7991 94.7729 12.5407 94.3879 7.84131 93.7043C14.3396 96.5767 25.194 98.467 37.4876 98.467C57.3753 98.467 73.4993 93.5321 73.4993 87.4425C73.4993 84.3172 69.2483 81.4965 62.4235 79.4915V79.7269C62.4235 81.3645 61.3054 82.904 59.3349 84.2425Z" fill="#CDBEB9"/>
<path fill-rule="evenodd" clip-rule="evenodd" d="M56.2407 34.6754L62.4235 36.6805V20.5027C60.5472 21.0599 58.4771 21.5483 56.2407 21.9676V34.6754Z" fill="#C76969"/>
<path fill-rule="evenodd" clip-rule="evenodd" d="M56.2407 40.8452L62.4235 38.8345V36.6801L56.2407 34.675V40.8452Z" fill="#C76969"/>
<path fill-rule="evenodd" clip-rule="evenodd" d="M62.4235 51.192V38.8347L56.2407 40.8455V53.1971L62.4235 51.192Z" fill="#C76969"/>
<path fill-rule="evenodd" clip-rule="evenodd" d="M62.4235 63.5495C62.4235 61.4525 62.4235 59.3499 62.4235 57.253C62.4235 55.2306 62.4235 53.2142 62.4235 51.1921L56.2407 53.1972V65.5545L62.4235 63.5495Z" fill="#C76969"/>
<path fill-rule="evenodd" clip-rule="evenodd" d="M56.2407 71.747L62.4235 73.7521C62.4235 70.3511 62.4235 66.9501 62.4235 63.5491L56.2407 65.5541V71.747Z" fill="#C76969"/>
<path fill-rule="evenodd" clip-rule="evenodd" d="M59.3349 84.2426C61.3054 82.904 62.4235 81.3643 62.4235 79.727V79.4915C62.4235 77.5785 62.4235 75.6653 62.4235 73.7524L56.2407 71.7473V79.727V84.099L58.4216 84.8113C58.7427 84.6219 59.047 84.4322 59.3349 84.2426Z" fill="#C76969"/>
<path d="M99.86 56.6017C99.5135 55.8354 98.6348 55.5062 97.8967 55.865C93.5016 58.0065 85.4959 58.0065 81.1004 55.865C76.5182 53.6325 69.169 53.3553 63.8994 55.0333V21.651C71.1475 19.3413 74.9752 16.2009 74.9752 12.5516C74.9752 8.81637 70.9617 5.61396 63.3684 3.29045C56.4344 1.16855 47.2428 0 37.4875 0C27.732 0 18.5406 1.16835 11.6066 3.29045C4.01348 5.61396 0 8.81637 0 12.5516C0 16.1999 3.82578 19.3396 11.0703 21.6494L11.0703 78.3466C3.82324 80.6537 0 83.7869 0 87.4425C0 91.1802 4.01348 94.3842 11.6066 96.7087C18.5398 98.831 27.7313 100 37.4877 100C47.2441 100 56.4356 98.8312 63.3688 96.7087C70.9619 94.3844 74.9754 91.1804 74.9754 87.4425C74.9754 83.7879 71.1504 80.6545 63.8996 78.3466V73.7624C63.8996 73.7563 63.8996 58.2708 63.8996 58.2708C68.4154 56.5076 75.7215 56.6307 79.8467 58.6408C82.4627 59.9155 85.9809 60.5528 89.4988 60.5528C93.0168 60.5528 96.535 59.9155 99.1508 58.6408C99.8885 58.281 100.206 57.3682 99.86 56.6017ZM58.2516 83.1502L32.6008 74.8281L46.6965 70.2562L60.9475 74.8793V79.7269C60.9475 80.8715 59.9824 82.0579 58.2516 83.1502ZM27.6416 48.5103L14.0223 44.0902V34.9446L23.6693 38.0746L41.7449 43.9358L27.6416 48.5103ZM22.6916 50.1157L14.0223 52.9277L14.0223 47.3023L22.6916 50.1157ZM14.0223 56.1394L28.0619 51.5857C28.0856 51.5784 28.1092 51.5713 28.1324 51.5628L47.1408 45.3975C47.1492 45.3946 47.1576 45.3922 47.166 45.3894L60.9475 40.9194V50.065L38.3529 57.3932L32.7856 59.2025L14.0223 65.2856V56.1394ZM60.9475 34.5957L31.1895 24.9437C33.25 25.053 35.3553 25.109 37.4875 25.109C46.1479 25.109 54.3615 24.1873 60.9475 22.496V34.5957ZM60.7936 37.7574L46.6967 42.3298L24.5492 35.1483L14.0221 31.7329V22.5871L60.7936 37.7574ZM14.0223 68.4971L33.6664 62.1284L39.2338 60.3189L60.9475 53.2764V62.4221L27.268 73.3462C27.2289 73.357 27.1906 73.3695 27.1527 73.3835L14.0223 77.6425V68.4971ZM60.9475 65.6339V71.6675L51.6471 68.6505L60.9475 65.6339ZM2.95195 12.5516C2.95195 8.59062 16.0904 3.0657 37.4877 3.0657C58.885 3.0657 72.0235 8.59062 72.0235 12.5516C72.0235 16.5149 58.885 22.0433 37.4877 22.0433C16.0904 22.0433 2.95195 16.5149 2.95195 12.5516ZM72.0235 87.4425C72.0235 91.4057 58.885 96.9343 37.4877 96.9343C16.0904 96.9343 2.95195 91.4057 2.95195 87.4425C2.95195 85.8603 5.2002 83.519 11.3646 81.4634C12.5582 84.9512 17.3801 87.7871 25.0061 89.393C25.1051 89.4139 25.2035 89.4238 25.3008 89.4238C25.9885 89.4238 26.6039 88.9222 26.7459 88.1952C26.908 87.3656 26.3916 86.5565 25.5926 86.3883C18.9123 84.9816 15.29 82.6721 14.3031 80.7632L27.6504 76.434L54.1883 85.0439C50.0061 86.5252 44.1672 87.5471 37.4877 87.5471C35.7621 87.5471 34.0221 87.477 32.3162 87.3392C31.5002 87.2711 30.7934 87.9045 30.7301 88.7485C30.6668 89.5926 31.2742 90.3301 32.0871 90.3958C33.8691 90.54 35.6859 90.6128 37.4879 90.6128C49.1996 90.6128 61.5816 87.4204 63.6092 81.4648C69.7744 83.5208 72.0235 85.8613 72.0235 87.4425Z" fill="black"/>
<path d="M50.0565 15.7337C54.3235 14.8065 56.3108 13.483 56.3108 11.5692C56.3108 9.65543 54.3237 8.33191 50.0565 7.40473C46.6828 6.67167 42.2192 6.26782 37.4877 6.26782C36.0942 6.26782 34.6617 6.30514 33.2299 6.37877C32.4156 6.42076 31.7885 7.14003 31.8287 7.98566C31.869 8.83109 32.5617 9.48038 33.376 9.44082C34.7592 9.36963 36.1426 9.33352 37.4877 9.33352C46.1479 9.33352 51.4578 10.6619 53.0223 11.5694C51.4578 12.4769 46.1479 13.8053 37.4877 13.8053C28.8573 13.8053 23.5543 12.4862 21.9696 11.5789C22.6213 11.2104 24.0364 10.6528 26.6926 10.1727C27.4957 10.0274 28.0336 9.23352 27.8938 8.39965C27.7539 7.56558 26.9912 7.00676 26.1865 7.1522C21.0547 8.07937 18.6647 9.48302 18.6647 11.569C18.6647 13.4828 20.6518 14.8063 24.9188 15.7335C28.2924 16.4665 32.7561 16.8704 37.4877 16.8704C42.219 16.8706 46.6828 16.4667 50.0565 15.7337Z" fill="black"/>
</svg>
