<svg width="100" height="100" viewBox="0 0 100 100" fill="none" xmlns="http://www.w3.org/2000/svg">
<g clip-path="url(#clip0)">
<path d="M16.1869 60.766C16.8543 61.2127 17.609 61.4262 18.3557 61.4262C19.6154 61.4262 20.8523 60.8176 21.6057 59.692C27.9176 50.26 38.4689 44.6289 49.8305 44.6289C61.1584 44.6289 71.6924 50.2342 78.0088 59.623C79.2133 61.4131 81.6404 61.8879 83.4303 60.6836C85.2203 59.4793 85.6951 57.0519 84.4908 55.2621C79.4441 47.7609 72.2086 42.226 63.9402 39.265C68.8988 35.2145 72.0703 29.0549 72.0703 22.168C72.0703 9.99824 62.1697 0.0976562 50 0.0976562C37.8303 0.0976562 27.9297 9.99824 27.9297 22.168C27.9297 29.0055 31.0551 35.1264 35.9523 39.1779C27.5547 42.1279 20.2104 47.7299 15.1129 55.3471C13.9131 57.14 14.3939 59.5662 16.1869 60.766ZM50 7.91016C57.8617 7.91016 64.2578 14.3063 64.2578 22.168C64.2578 30.0297 57.8617 36.4258 50 36.4258C42.1383 36.4258 35.7422 30.0297 35.7422 22.168C35.7422 14.3063 42.1383 7.91016 50 7.91016ZM65.5777 69.2637L59.7543 73.4647C58.8879 74.0897 58.5252 75.1977 58.8562 76.209L61.2014 83.0062C61.3004 83.309 61.3385 83.6047 61.3258 83.8867C61.2428 85.7123 58.9547 86.9611 57.2766 85.7506L51.4533 81.5484C51.0201 81.2359 50.5102 81.0797 50.0002 81.0797C49.4902 81.0797 48.9803 81.2359 48.5471 81.5484L42.7238 85.7506C41.0457 86.9611 38.7467 85.7123 38.674 83.8867C38.6629 83.6047 38.702 83.3088 38.801 83.0062L41.1439 76.209C41.475 75.1977 41.1123 74.0897 40.2459 73.4647L34.4225 69.2637C32.485 67.866 33.4807 64.5508 35.8756 64.5508H43.0736C44.1447 64.5508 45.0939 64.1385 45.4248 63.1271L47.649 56.2859C48.0191 55.1553 49.0096 54.5898 50.0002 54.5898C50.9908 54.5898 51.9813 55.1553 52.3514 56.2859L54.5756 63.1271C54.9066 64.1385 55.8557 64.5508 56.9268 64.5508H64.1248C66.5195 64.5508 67.5152 67.866 65.5777 69.2637ZM98.9762 82.9355L93.1527 87.1365C92.2863 87.7615 91.9236 88.8695 92.2547 89.8809L94.5998 96.6781C94.6988 96.9809 94.7369 97.2766 94.7242 97.5586C94.6412 99.3842 92.3531 100.633 90.675 99.4225L84.8518 95.2203C84.4186 94.9078 83.9086 94.7516 83.3986 94.7516C82.8887 94.7516 82.3787 94.9078 81.9455 95.2203L76.1223 99.4225C74.4441 100.633 72.1451 99.3842 72.0725 97.5586C72.0613 97.2766 72.1004 96.9807 72.1994 96.6781L74.5424 89.8809C74.8734 88.8695 74.5107 87.7615 73.6443 87.1365L67.8209 82.9355C65.8834 81.5379 66.8791 78.2227 69.274 78.2227H76.4721C77.5432 78.2227 78.4924 77.8103 78.8232 76.799L81.0475 69.9578C81.4176 68.8271 82.408 68.2617 83.3986 68.2617C84.3893 68.2617 85.3797 68.8271 85.7498 69.9578L87.974 76.799C88.3051 77.8103 89.2541 78.2227 90.3252 78.2227H97.5232C99.918 78.2227 100.914 81.5379 98.9762 82.9355ZM32.1793 82.9355L26.3559 87.1365C25.4895 87.7615 25.1268 88.8695 25.4578 89.8809L27.8029 96.6781C27.902 96.9809 27.94 97.2766 27.9273 97.5586C27.8443 99.3842 25.5562 100.633 23.8781 99.4225L18.0547 95.2203C17.6215 94.9078 17.1115 94.7516 16.6016 94.7516C16.0916 94.7516 15.5816 94.9078 15.1484 95.2203L9.3252 99.4225C7.64707 100.633 5.34805 99.3842 5.27539 97.5586C5.26426 97.2766 5.30332 96.9807 5.40234 96.6781L7.74531 89.8809C8.07637 88.8695 7.71367 87.7615 6.84727 87.1365L1.02383 82.9355C-0.913672 81.5379 0.0820311 78.2227 2.47695 78.2227H9.675C10.7461 78.2227 11.6953 77.8103 12.0262 76.799L14.2504 69.9578C14.6205 68.8271 15.6109 68.2617 16.6016 68.2617C17.5922 68.2617 18.5826 68.8271 18.9527 69.9578L21.177 76.799C21.508 77.8103 22.457 78.2227 23.5281 78.2227H30.7262C33.1211 78.2227 34.1168 81.5379 32.1793 82.9355Z" fill="#4F4449"/>
</g>
<defs>
<clipPath id="clip0">
<rect width="100" height="100" fill="white"/>
</clipPath>
</defs>
</svg>
